<svg xmlns="http://www.w3.org/2000/svg" xmlns:xlink="http://www.w3.org/1999/xlink" xmlns:inkscape="http://www.inkscape.org/namespaces/inkscape" version="1.1" viewBox="140 380 720 220">
<defs>
<clipPath id="clip_1">
<path transform="matrix(1,0,0,-1,0,1000)" d="M0 1000H1000V0H0Z"/>
</clipPath>
</defs>
<g inkscape:groupmode="layer" inkscape:label="Layer 1">

<g clip-path="url(#clip_1)">
<path transform="matrix(1,0,0,-1,506.6304,454.06074)" d="M0 0 5.027 4.839 5.312 5.116C5.312 5.12 5.316 5.12 5.32 5.124L7.119 6.854 8.816 4.966C8.885 4.896 8.95 4.823 9.011 4.746L9.264 4.465 21.348-8.962 21.36-8.975 26.774-14.99 29.777-18.324C29.777-18.316 29.781-18.312 29.781-18.303L34.474-23.501C35.341-21.193 36.013-18.792 36.477-16.317 32.708-12.17 28.939-8.022 25.17-3.879L16.692 5.576 11.03 11.893 9.321 13.798C9.268 13.863 9.211 13.924 9.154 13.985 8.678 14.457 8.026 14.75 7.302 14.75 6.687 14.75 6.118 14.535 5.67 14.172 5.548 14.079 5.434 13.969 5.336 13.851L-4.526 4.359-5.515 3.419-.956-.908Z" fill="#D4AF37"/>
<path transform="matrix(1,0,0,-1,493.7647,466.27119)" d="M0 0 2.991 2.837 3.834 3.635 5.283 5.01 .72 9.329-.782 7.896-1.087 7.611-1.262 7.444-1.327 7.383-2.121 6.638-4.599 4.286-4.73 4.16C-7.672 1.286-9.508-2.723-9.508-7.143-9.508-15.87-2.41-22.96 6.309-22.96 15.031-22.96 22.129-15.87 22.129-7.143 22.129-3.154 20.644 .492 18.185 3.276 17.595 3.96 16.936 4.595 16.228 5.169L10.888 10.306 10.875 10.318 10.871 10.322 6.358 14.665 6.345 14.677-5.568 26.143-5.714 26.285C-6.178 26.708-6.793 26.961-7.465 26.961-8.157 26.961-8.784 26.692-9.251 26.253-9.357 26.151-9.455 26.045-9.541 25.927L-14.294 20.628-17.721 16.765-17.726 16.761-17.774 16.704-30.673 2.182C-32.687-.037-34.706-2.255-36.721-4.469-36.237-6.927-35.549-9.313-34.67-11.604L-29.887-6.309C-29.883-6.329-29.879-6.354-29.875-6.374L-26.989-3.122-25.549-1.498-21.645 2.825-21.674 2.861-13.179 12.414-13.171 12.422C-12.821 12.854-12.455 13.277-12.08 13.696L-9.142 16.973C-9.089 17.038-9.032 17.103-8.971 17.164L-7.265 19.065-5.397 17.266C-5.393 17.266-5.385 17.262-5.381 17.249-5.328 17.209-5.279 17.16-5.234 17.107-5.222 17.103-5.218 17.095-5.218 17.091L1.791 10.346 1.832 10.306 3.753 8.458 6.309 5.987 6.358 5.947 12.068 .452 13.667-1.087C13.676-1.087 13.684-1.103 13.692-1.111 15.035-2.747 15.849-4.856 15.849-7.143 15.849-12.402 11.572-16.684 6.309-16.684 1.05-16.684-3.228-12.402-3.228-7.143-3.228-4.302-1.982-1.754 0 0" fill="#D4AF37"/>
<path transform="matrix(1,0,0,-1,500,415.6878)" d="M0 0C-25.703 0-46.611-20.908-46.611-46.612-46.611-71.993-26.224-92.698-.965-93.211H-.581V-93.206C-.573-93.207-.566-93.211-.558-93.211-.333-93.211-.151-93.028-.151-92.804-.151-92.579-.333-92.397-.558-92.397-.566-92.397-.573-92.401-.581-92.401V-92.397H-.965C-25.772-91.884-45.797-71.541-45.797-46.612-45.797-21.36-25.251-.814 0-.814 25.251-.814 45.797-21.36 45.797-46.612 45.797-71.541 25.772-91.884 .965-92.397H.581C.356-92.397 .174-92.579 .174-92.804 .174-93.029 .356-93.211 .581-93.211H.965C26.224-92.698 46.612-71.993 46.612-46.612 46.612-20.908 25.703 0 0 0" fill="#D4AF37"/>
<path transform="matrix(1,0,0,-1,154.7256,570.0469)" d="M0 0V32.607H3.751L16.924 12.641 30.185 32.607H33.877V0H29.86V25.459L16.924 6.173 3.987 25.459V0Z" fill="#D4AF37"/>
<path transform="matrix(1,0,0,-1,209.8633,557.46487)" d="M0 0H14.354L7.147 14.443ZM-10.515-12.582 5.464 20.025H8.831L24.986-12.582H20.586L16.155-3.81H-1.861L-6.173-12.582Z" fill="#D4AF37"/>
<path transform="matrix(1,0,0,-1,245.9219,570.0469)" d="M0 0V32.607H2.126L23.273 8.24V32.607H27.349V0H25.281L4.046 24.366V0Z" fill="#D4AF37"/>
<path transform="matrix(1,0,0,-1,289.0977,570.0469)" d="M0 0V32.607H25.636V28.856H4.046V19.286H17.101V15.535H4.046V3.751H26.965V0Z" fill="#D4AF37"/>
<path transform="matrix(1,0,0,-1,328.2275,570.0469)" d="M0 0V32.607H25.636V28.856H4.046V19.286H17.101V15.535H4.046V3.751H26.965V0Z" fill="#D4AF37"/>
<path transform="matrix(1,0,0,-1,364.2549,565.14407)" d="M0 0 2.362 3.515C4.666 1.723 7.063 .354 9.555-.591 12.045-1.536 14.512-2.008 16.953-2.008 19.966-2.008 22.412-1.369 24.293-.089 26.173 1.191 27.113 2.835 27.113 4.844 27.113 6.439 26.438 7.753 25.09 8.787 23.741 9.821 21.875 10.436 19.493 10.633 18.922 10.692 18.095 10.751 17.012 10.81 11.656 11.184 8.004 11.814 6.055 12.7 4.538 13.428 3.387 14.369 2.599 15.521 1.812 16.673 1.418 17.967 1.418 19.405 1.418 22.023 2.589 24.179 4.933 25.873 7.275 27.566 10.317 28.413 14.059 28.413 16.775 28.413 19.458 27.965 22.107 27.069 24.755 26.173 27.271 24.849 29.653 23.096L27.29 19.729C25.282 21.344 23.17 22.56 20.955 23.377 18.74 24.194 16.461 24.603 14.118 24.603 11.656 24.603 9.628 24.125 8.033 23.17 6.438 22.215 5.641 21.019 5.641 19.582 5.641 19.01 5.769 18.489 6.025 18.016 6.28 17.544 6.675 17.101 7.206 16.687 8.545 15.683 11.439 15.043 15.89 14.768 17.937 14.649 19.522 14.521 20.645 14.384 23.953 14.009 26.571 12.946 28.501 11.194 30.431 9.441 31.396 7.285 31.396 4.726 31.396 1.673 30.071-.837 27.423-2.806 24.774-4.775 21.305-5.759 17.012-5.759 13.764-5.759 10.746-5.287 7.96-4.342 5.173-3.396 2.521-1.949 0 0" fill="#D4AF37"/>
<path transform="matrix(1,0,0,-1,409.5879,570.0469)" d="M0 0V32.607H4.104V19.729H23.332V32.607H27.408V0H23.332V15.979H4.104V0Z" fill="#D4AF37"/>
<path transform="matrix(1,0,0,-1,458.582,557.46487)" d="M0 0H14.354L7.147 14.443ZM-10.515-12.582 5.464 20.025H8.831L24.986-12.582H20.586L16.155-3.81H-1.861L-6.173-12.582Z" fill="#D4AF37"/>
<path transform="matrix(1,0,0,-1,546.9121,559.6504)" d="M0 0 3.249-2.422C1.753-5.257-.295-7.438-2.894-8.964-5.493-10.49-8.446-11.253-11.755-11.253-16.638-11.253-20.67-9.643-23.85-6.424-27.029-3.205-28.619 .876-28.619 5.818-28.619 10.78-27.024 14.871-23.834 18.09-20.645 21.31-16.618 22.919-11.755 22.919-8.742 22.919-5.995 22.259-3.515 20.94-1.033 19.621 .984 17.74 2.54 15.299L-.856 12.877C-1.88 14.827-3.356 16.352-5.286 17.455-7.216 18.558-9.372 19.109-11.755 19.109-15.417 19.109-18.449 17.854-20.852 15.344-23.254 12.833-24.455 9.658-24.455 5.818-24.455 1.979-23.254-1.192-20.852-3.692-18.449-6.193-15.417-7.443-11.755-7.443-9.195-7.443-6.921-6.813-4.932-5.553-2.943-4.293-1.299-2.442 0 0" fill="#D4AF37"/>
<path transform="matrix(1,0,0,-1,563.5361,570.0469)" d="M0 0V32.607H4.104V19.729H23.332V32.607H27.408V0H23.332V15.979H4.104V0Z" fill="#D4AF37"/>
<path transform="matrix(1,0,0,-1,612.5303,557.46487)" d="M0 0H14.354L7.147 14.443ZM-10.515-12.582 5.464 20.025H8.831L24.986-12.582H20.586L16.155-3.81H-1.861L-6.173-12.582Z" fill="#D4AF37"/>
<path transform="matrix(1,0,0,-1,648.5889,570.0469)" d="M0 0V32.607H2.126L23.273 8.24V32.607H27.349V0H25.281L4.046 24.366V0Z" fill="#D4AF37"/>
<path transform="matrix(1,0,0,-1,705.7344,541.1909)" d="M0 0H-9.924V-25.105H0C4.017-25.105 7.177-23.978 9.48-21.723 11.784-19.469 12.937-16.422 12.937-12.582 12.937-8.802 11.765-5.76 9.422-3.456 7.078-1.152 3.938 0 0 0M0 3.751C5.139 3.751 9.278 2.234 12.42-.798 15.56-3.83 17.13-7.778 17.13-12.641 17.13-17.544 15.584-21.472 12.493-24.426 9.401-27.379 5.237-28.856 0-28.856H-13.97V3.751Z" fill="#D4AF37"/>
<path transform="matrix(1,0,0,-1,739.9609,551.97146)" d="M0 0H14.384C16.432 0 17.982 .453 19.036 1.359 20.089 2.264 20.616 3.593 20.616 5.346 20.616 7.059 20.089 8.393 19.036 9.348 17.982 10.303 16.5 10.781 14.591 10.781H0ZM-4.046-18.075V14.531H14.649C17.84 14.531 20.34 13.729 22.151 12.124 23.963 10.519 24.869 8.3 24.869 5.464 24.869 3.101 24.16 1.078 22.742-.605 21.325-2.289 19.454-3.337 17.131-3.751L25.282-18.075H20.793L12.642-3.81H0V-18.075Z" fill="#D4AF37"/>
<path transform="matrix(1,0,0,-1,781.7783,557.46487)" d="M0 0H14.354L7.147 14.443ZM-10.515-12.582 5.464 20.025H8.831L24.986-12.582H20.586L16.155-3.81H-1.861L-6.173-12.582Z" fill="#D4AF37"/>
<path transform="matrix(1,0,0,-1,817.8369,570.0469)" d="M0 0V32.607H2.126L23.273 8.24V32.607H27.349V0H25.281L4.046 24.366V0Z" fill="#D4AF37"/>
</g>
</g>
</svg>
